<?xml version="1.0" standalone="no"?>
<!DOCTYPE svg PUBLIC "-//W3C//DTD SVG 20010904//EN"
 "http://www.w3.org/TR/2001/REC-SVG-20010904/DTD/svg10.dtd">
<svg version="1.0" xmlns="http://www.w3.org/2000/svg"
 width="192.000000pt" height="192.000000pt" viewBox="0 0 192.000000 192.000000"
 preserveAspectRatio="xMidYMid meet">
<metadata>
Created by potrace 1.14, written by Peter Selinger 2001-2017
</metadata>
<g transform="translate(0.000000,192.000000) scale(0.100000,-0.100000)"
fill="#000000" stroke="none">
<path d="M50 960 l0 -910 910 0 910 0 0 910 0 910 -910 0 -910 0 0 -910z m935
274 c16 -39 35 -84 41 -101 l11 -30 104 -7 c158 -11 164 -26 49 -120 -44 -37
-80 -72 -80 -80 0 -7 9 -48 20 -91 24 -93 25 -114 8 -97 -15 15 -52 16 -43 1
4 -6 17 -14 29 -19 20 -8 20 -9 1 -9 -11 -1 -57 22 -103 49 -46 28 -87 50 -92
50 -5 0 -45 -22 -88 -50 -43 -27 -90 -50 -103 -50 -17 1 -5 10 41 32 74 36 68
49 -9 19 -61 -25 -62 -23 -31 84 11 38 20 75 20 81 0 5 -38 43 -85 82 -75 64
-84 75 -75 92 8 15 21 20 53 20 23 0 72 3 109 7 l68 6 31 81 c58 152 77 159
124 50z"/>
</g>
</svg>
